<svg width="555" height="196" viewBox="0 0 555 196" fill="none" xmlns="http://www.w3.org/2000/svg">
<rect x="54.1399" y="50.5324" width="128" height="66" rx="33" transform="rotate(45.4933 54.1399 50.5324)" stroke="white" stroke-width="10"/>
<rect x="188.083" y="98.3564" width="128" height="66" rx="33" transform="rotate(135.493 188.083 98.3564)" stroke="white" stroke-width="10"/>
<mask id="path-3-outside-1_51_3" maskUnits="userSpaceOnUse" x="217" y="82" width="333" height="74" fill="black">
<rect fill="white" x="217" y="82" width="333" height="74"/>
<path d="M218.455 153V83.1818H242.045C247.523 83.1818 252 84.1705 255.477 86.1477C258.977 88.1023 261.568 90.75 263.25 94.0909C264.932 97.4318 265.773 101.159 265.773 105.273C265.773 109.386 264.932 113.125 263.25 116.489C261.591 119.852 259.023 122.534 255.545 124.534C252.068 126.511 247.614 127.5 242.182 127.5H225.273V120H241.909C245.659 120 248.67 119.352 250.943 118.057C253.216 116.761 254.864 115.011 255.886 112.807C256.932 110.58 257.455 108.068 257.455 105.273C257.455 102.477 256.932 99.9773 255.886 97.7727C254.864 95.5682 253.205 93.8409 250.909 92.5909C248.614 91.3182 245.568 90.6818 241.773 90.6818H226.909V153H218.455ZM311.301 131.591V100.636H319.347V153H311.301V144.136H310.756C309.528 146.795 307.619 149.057 305.028 150.92C302.438 152.761 299.165 153.682 295.21 153.682C291.938 153.682 289.028 152.966 286.483 151.534C283.938 150.08 281.938 147.898 280.483 144.989C279.028 142.057 278.301 138.364 278.301 133.909V100.636H286.347V133.364C286.347 137.182 287.415 140.227 289.551 142.5C291.71 144.773 294.46 145.909 297.801 145.909C299.801 145.909 301.835 145.398 303.903 144.375C305.994 143.352 307.744 141.784 309.153 139.67C310.585 137.557 311.301 134.864 311.301 131.591ZM342.128 83.1818V153H334.082V83.1818H342.128ZM393.955 112.364L386.727 114.409C386.273 113.205 385.602 112.034 384.716 110.898C383.852 109.739 382.67 108.784 381.17 108.034C379.67 107.284 377.75 106.909 375.409 106.909C372.205 106.909 369.534 107.648 367.398 109.125C365.284 110.58 364.227 112.432 364.227 114.682C364.227 116.682 364.955 118.261 366.409 119.42C367.864 120.58 370.136 121.545 373.227 122.318L381 124.227C385.682 125.364 389.17 127.102 391.466 129.443C393.761 131.761 394.909 134.75 394.909 138.409C394.909 141.409 394.045 144.091 392.318 146.455C390.614 148.818 388.227 150.682 385.159 152.045C382.091 153.409 378.523 154.091 374.455 154.091C369.114 154.091 364.693 152.932 361.193 150.614C357.693 148.295 355.477 144.909 354.545 140.455L362.182 138.545C362.909 141.364 364.284 143.477 366.307 144.886C368.352 146.295 371.023 147 374.318 147C378.068 147 381.045 146.205 383.25 144.614C385.477 143 386.591 141.068 386.591 138.818C386.591 137 385.955 135.477 384.682 134.25C383.409 133 381.455 132.068 378.818 131.455L370.091 129.409C365.295 128.273 361.773 126.511 359.523 124.125C357.295 121.716 356.182 118.705 356.182 115.091C356.182 112.136 357.011 109.523 358.67 107.25C360.352 104.977 362.636 103.193 365.523 101.898C368.432 100.602 371.727 99.9545 375.409 99.9545C380.591 99.9545 384.659 101.091 387.614 103.364C390.591 105.636 392.705 108.636 393.955 112.364ZM428.974 154.091C423.929 154.091 419.577 152.977 415.918 150.75C412.281 148.5 409.474 145.364 407.497 141.341C405.543 137.295 404.565 132.591 404.565 127.227C404.565 121.864 405.543 117.136 407.497 113.045C409.474 108.932 412.224 105.727 415.747 103.432C419.293 101.114 423.429 99.9545 428.156 99.9545C430.884 99.9545 433.577 100.409 436.236 101.318C438.895 102.227 441.315 103.705 443.497 105.75C445.679 107.773 447.418 110.455 448.713 113.795C450.009 117.136 450.656 121.25 450.656 126.136V129.545H410.293V122.591H442.474C442.474 119.636 441.884 117 440.702 114.682C439.543 112.364 437.884 110.534 435.724 109.193C433.588 107.852 431.065 107.182 428.156 107.182C424.952 107.182 422.179 107.977 419.838 109.568C417.52 111.136 415.736 113.182 414.486 115.705C413.236 118.227 412.611 120.932 412.611 123.818V128.455C412.611 132.409 413.293 135.761 414.656 138.511C416.043 141.239 417.963 143.318 420.418 144.75C422.872 146.159 425.724 146.864 428.974 146.864C431.088 146.864 432.997 146.568 434.702 145.977C436.429 145.364 437.918 144.455 439.168 143.25C440.418 142.023 441.384 140.5 442.065 138.682L449.838 140.864C449.02 143.5 447.645 145.818 445.713 147.818C443.781 149.795 441.395 151.341 438.554 152.455C435.713 153.545 432.52 154.091 428.974 154.091ZM473.634 153H457.815L481.918 83.1818H500.94L525.009 153H509.19L491.702 99.1364H491.156L473.634 153ZM472.645 125.557H510.009V137.08H472.645V125.557ZM548.173 83.1818V153H533.412V83.1818H548.173Z"/>
</mask>
<path d="M218.455 153V83.1818H242.045C247.523 83.1818 252 84.1705 255.477 86.1477C258.977 88.1023 261.568 90.75 263.25 94.0909C264.932 97.4318 265.773 101.159 265.773 105.273C265.773 109.386 264.932 113.125 263.25 116.489C261.591 119.852 259.023 122.534 255.545 124.534C252.068 126.511 247.614 127.5 242.182 127.5H225.273V120H241.909C245.659 120 248.67 119.352 250.943 118.057C253.216 116.761 254.864 115.011 255.886 112.807C256.932 110.58 257.455 108.068 257.455 105.273C257.455 102.477 256.932 99.9773 255.886 97.7727C254.864 95.5682 253.205 93.8409 250.909 92.5909C248.614 91.3182 245.568 90.6818 241.773 90.6818H226.909V153H218.455ZM311.301 131.591V100.636H319.347V153H311.301V144.136H310.756C309.528 146.795 307.619 149.057 305.028 150.92C302.438 152.761 299.165 153.682 295.21 153.682C291.938 153.682 289.028 152.966 286.483 151.534C283.938 150.08 281.938 147.898 280.483 144.989C279.028 142.057 278.301 138.364 278.301 133.909V100.636H286.347V133.364C286.347 137.182 287.415 140.227 289.551 142.5C291.71 144.773 294.46 145.909 297.801 145.909C299.801 145.909 301.835 145.398 303.903 144.375C305.994 143.352 307.744 141.784 309.153 139.67C310.585 137.557 311.301 134.864 311.301 131.591ZM342.128 83.1818V153H334.082V83.1818H342.128ZM393.955 112.364L386.727 114.409C386.273 113.205 385.602 112.034 384.716 110.898C383.852 109.739 382.67 108.784 381.17 108.034C379.67 107.284 377.75 106.909 375.409 106.909C372.205 106.909 369.534 107.648 367.398 109.125C365.284 110.58 364.227 112.432 364.227 114.682C364.227 116.682 364.955 118.261 366.409 119.42C367.864 120.58 370.136 121.545 373.227 122.318L381 124.227C385.682 125.364 389.17 127.102 391.466 129.443C393.761 131.761 394.909 134.75 394.909 138.409C394.909 141.409 394.045 144.091 392.318 146.455C390.614 148.818 388.227 150.682 385.159 152.045C382.091 153.409 378.523 154.091 374.455 154.091C369.114 154.091 364.693 152.932 361.193 150.614C357.693 148.295 355.477 144.909 354.545 140.455L362.182 138.545C362.909 141.364 364.284 143.477 366.307 144.886C368.352 146.295 371.023 147 374.318 147C378.068 147 381.045 146.205 383.25 144.614C385.477 143 386.591 141.068 386.591 138.818C386.591 137 385.955 135.477 384.682 134.25C383.409 133 381.455 132.068 378.818 131.455L370.091 129.409C365.295 128.273 361.773 126.511 359.523 124.125C357.295 121.716 356.182 118.705 356.182 115.091C356.182 112.136 357.011 109.523 358.67 107.25C360.352 104.977 362.636 103.193 365.523 101.898C368.432 100.602 371.727 99.9545 375.409 99.9545C380.591 99.9545 384.659 101.091 387.614 103.364C390.591 105.636 392.705 108.636 393.955 112.364ZM428.974 154.091C423.929 154.091 419.577 152.977 415.918 150.75C412.281 148.5 409.474 145.364 407.497 141.341C405.543 137.295 404.565 132.591 404.565 127.227C404.565 121.864 405.543 117.136 407.497 113.045C409.474 108.932 412.224 105.727 415.747 103.432C419.293 101.114 423.429 99.9545 428.156 99.9545C430.884 99.9545 433.577 100.409 436.236 101.318C438.895 102.227 441.315 103.705 443.497 105.75C445.679 107.773 447.418 110.455 448.713 113.795C450.009 117.136 450.656 121.25 450.656 126.136V129.545H410.293V122.591H442.474C442.474 119.636 441.884 117 440.702 114.682C439.543 112.364 437.884 110.534 435.724 109.193C433.588 107.852 431.065 107.182 428.156 107.182C424.952 107.182 422.179 107.977 419.838 109.568C417.52 111.136 415.736 113.182 414.486 115.705C413.236 118.227 412.611 120.932 412.611 123.818V128.455C412.611 132.409 413.293 135.761 414.656 138.511C416.043 141.239 417.963 143.318 420.418 144.75C422.872 146.159 425.724 146.864 428.974 146.864C431.088 146.864 432.997 146.568 434.702 145.977C436.429 145.364 437.918 144.455 439.168 143.25C440.418 142.023 441.384 140.5 442.065 138.682L449.838 140.864C449.02 143.5 447.645 145.818 445.713 147.818C443.781 149.795 441.395 151.341 438.554 152.455C435.713 153.545 432.52 154.091 428.974 154.091ZM473.634 153H457.815L481.918 83.1818H500.94L525.009 153H509.19L491.702 99.1364H491.156L473.634 153ZM472.645 125.557H510.009V137.08H472.645V125.557ZM548.173 83.1818V153H533.412V83.1818H548.173Z" fill="white"/>
<path d="M218.455 153H217.455V154H218.455V153ZM218.455 83.1818V82.1818H217.455V83.1818H218.455ZM255.477 86.1477L254.983 87.017L254.99 87.0208L255.477 86.1477ZM263.25 94.0909L262.357 94.5406V94.5406L263.25 94.0909ZM263.25 116.489L262.356 116.041L262.353 116.046L263.25 116.489ZM255.545 124.534L256.04 125.403L256.044 125.401L255.545 124.534ZM225.273 127.5H224.273V128.5H225.273V127.5ZM225.273 120V119H224.273V120H225.273ZM250.943 118.057L250.448 117.188V117.188L250.943 118.057ZM255.886 112.807L254.981 112.382L254.979 112.386L255.886 112.807ZM255.886 97.7727L254.979 98.1936L254.983 98.2012L255.886 97.7727ZM250.909 92.5909L250.424 93.4655L250.431 93.4691L250.909 92.5909ZM226.909 90.6818V89.6818H225.909V90.6818H226.909ZM226.909 153V154H227.909V153H226.909ZM218.455 153H219.455V83.1818H218.455H217.455V153H218.455ZM218.455 83.1818V84.1818H242.045V83.1818V82.1818H218.455V83.1818ZM242.045 83.1818V84.1818C247.411 84.1818 251.702 85.1513 254.983 87.017L255.477 86.1477L255.972 85.2784C252.298 83.1896 247.635 82.1818 242.045 82.1818V83.1818ZM255.477 86.1477L254.99 87.0208C258.328 88.8853 260.771 91.3912 262.357 94.5406L263.25 94.0909L264.143 93.6413C262.365 90.1088 259.626 87.3193 255.965 85.2746L255.477 86.1477ZM263.25 94.0909L262.357 94.5406C263.962 97.7285 264.773 101.299 264.773 105.273H265.773H266.773C266.773 101.019 265.902 97.1351 264.143 93.6413L263.25 94.0909ZM265.773 105.273H264.773C264.773 109.246 263.962 112.829 262.356 116.041L263.25 116.489L264.144 116.936C265.902 113.421 266.773 109.527 266.773 105.273H265.773ZM263.25 116.489L262.353 116.046C260.788 119.219 258.365 121.759 255.047 123.667L255.545 124.534L256.044 125.401C259.681 123.309 262.394 120.485 264.147 116.931L263.25 116.489ZM255.545 124.534L255.051 123.665C251.769 125.531 247.5 126.5 242.182 126.5V127.5V128.5C247.727 128.5 252.367 127.492 256.04 125.403L255.545 124.534ZM242.182 127.5V126.5H225.273V127.5V128.5H242.182V127.5ZM225.273 127.5H226.273V120H225.273H224.273V127.5H225.273ZM225.273 120V121H241.909V120V119H225.273V120ZM241.909 120V121C245.762 121 248.963 120.336 251.438 118.926L250.943 118.057L250.448 117.188C248.378 118.368 245.556 119 241.909 119V120ZM250.943 118.057L251.438 118.926C253.877 117.536 255.677 115.635 256.794 113.228L255.886 112.807L254.979 112.386C254.051 114.387 252.555 115.987 250.448 117.188L250.943 118.057ZM255.886 112.807L256.792 113.232C257.907 110.854 258.455 108.195 258.455 105.273H257.455H256.455C256.455 107.941 255.956 110.305 254.981 112.382L255.886 112.807ZM257.455 105.273H258.455C258.455 102.351 257.908 99.7009 256.79 97.3442L255.886 97.7727L254.983 98.2012C255.956 100.254 256.455 102.604 256.455 105.273H257.455ZM255.886 97.7727L256.794 97.3519C255.674 94.9378 253.856 93.057 251.387 91.7127L250.909 92.5909L250.431 93.4691C252.553 94.6248 254.054 96.1985 254.979 98.1936L255.886 97.7727ZM250.909 92.5909L251.394 91.7163C248.899 90.3327 245.667 89.6818 241.773 89.6818V90.6818V91.6818C245.469 91.6818 248.329 92.3036 250.424 93.4655L250.909 92.5909ZM241.773 90.6818V89.6818H226.909V90.6818V91.6818H241.773V90.6818ZM226.909 90.6818H225.909V153H226.909H227.909V90.6818H226.909ZM226.909 153V152H218.455V153V154H226.909V153ZM311.301 100.636V99.6364H310.301V100.636H311.301ZM319.347 100.636H320.347V99.6364H319.347V100.636ZM319.347 153V154H320.347V153H319.347ZM311.301 153H310.301V154H311.301V153ZM311.301 144.136H312.301V143.136H311.301V144.136ZM310.756 144.136V143.136H310.116L309.848 143.717L310.756 144.136ZM305.028 150.92L305.608 151.736L305.612 151.732L305.028 150.92ZM286.483 151.534L285.987 152.402L285.993 152.406L286.483 151.534ZM280.483 144.989L279.587 145.433L279.589 145.436L280.483 144.989ZM278.301 100.636V99.6364H277.301V100.636H278.301ZM286.347 100.636H287.347V99.6364H286.347V100.636ZM289.551 142.5L288.822 143.185L288.826 143.189L289.551 142.5ZM303.903 144.375L303.464 143.477L303.46 143.479L303.903 144.375ZM309.153 139.67L308.325 139.11L308.321 139.116L309.153 139.67ZM311.301 131.591H312.301V100.636H311.301H310.301V131.591H311.301ZM311.301 100.636V101.636H319.347V100.636V99.6364H311.301V100.636ZM319.347 100.636H318.347V153H319.347H320.347V100.636H319.347ZM319.347 153V152H311.301V153V154H319.347V153ZM311.301 153H312.301V144.136H311.301H310.301V153H311.301ZM311.301 144.136V143.136H310.756V144.136V145.136H311.301V144.136ZM310.756 144.136L309.848 143.717C308.699 146.206 306.908 148.336 304.444 150.109L305.028 150.92L305.612 151.732C308.33 149.777 310.358 147.385 311.664 144.555L310.756 144.136ZM305.028 150.92L304.449 150.105C302.065 151.799 299.008 152.682 295.21 152.682V153.682V154.682C299.321 154.682 302.81 153.723 305.608 151.736L305.028 150.92ZM295.21 153.682V152.682C292.088 152.682 289.352 152 286.973 150.663L286.483 151.534L285.993 152.406C288.705 153.931 291.787 154.682 295.21 154.682V153.682ZM286.483 151.534L286.979 150.666C284.624 149.32 282.754 147.294 281.377 144.541L280.483 144.989L279.589 145.436C281.121 148.501 283.251 150.839 285.987 152.402L286.483 151.534ZM280.483 144.989L281.379 144.544C280.013 141.791 279.301 138.262 279.301 133.909H278.301H277.301C277.301 138.465 278.044 142.323 279.587 145.433L280.483 144.989ZM278.301 133.909H279.301V100.636H278.301H277.301V133.909H278.301ZM278.301 100.636V101.636H286.347V100.636V99.6364H278.301V100.636ZM286.347 100.636H285.347V133.364H286.347H287.347V100.636H286.347ZM286.347 133.364H285.347C285.347 137.376 286.475 140.687 288.823 143.185L289.551 142.5L290.28 141.815C288.355 139.767 287.347 136.987 287.347 133.364H286.347ZM289.551 142.5L288.826 143.189C291.187 145.674 294.206 146.909 297.801 146.909V145.909V144.909C294.714 144.909 292.233 143.871 290.276 141.811L289.551 142.5ZM297.801 145.909V146.909C299.977 146.909 302.162 146.352 304.347 145.271L303.903 144.375L303.46 143.479C301.509 144.444 299.625 144.909 297.801 144.909V145.909ZM303.903 144.375L304.343 145.273C306.607 144.166 308.487 142.472 309.985 140.225L309.153 139.67L308.321 139.116C307.001 141.096 305.382 142.539 303.464 143.477L303.903 144.375ZM309.153 139.67L309.981 140.231C311.553 137.911 312.301 135.007 312.301 131.591H311.301H310.301C310.301 134.72 309.617 137.203 308.325 139.11L309.153 139.67ZM342.128 83.1818H343.128V82.1818H342.128V83.1818ZM342.128 153V154H343.128V153H342.128ZM334.082 153H333.082V154H334.082V153ZM334.082 83.1818V82.1818H333.082V83.1818H334.082ZM342.128 83.1818H341.128V153H342.128H343.128V83.1818H342.128ZM342.128 153V152H334.082V153V154H342.128V153ZM334.082 153H335.082V83.1818H334.082H333.082V153H334.082ZM334.082 83.1818V84.1818H342.128V83.1818V82.1818H334.082V83.1818ZM393.955 112.364L394.227 113.326L395.236 113.04L394.903 112.046L393.955 112.364ZM386.727 114.409L385.792 114.762L386.116 115.621L387 115.371L386.727 114.409ZM384.716 110.898L383.914 111.495L383.921 111.504L383.927 111.513L384.716 110.898ZM381.17 108.034L381.618 107.14V107.14L381.17 108.034ZM367.398 109.125L367.965 109.949L367.966 109.948L367.398 109.125ZM366.409 119.42L365.786 120.203V120.203L366.409 119.42ZM373.227 122.318L372.985 123.288L372.989 123.289L373.227 122.318ZM381 124.227L380.761 125.198L380.764 125.199L381 124.227ZM391.466 129.443L390.752 130.143L390.755 130.147L391.466 129.443ZM392.318 146.455L391.511 145.865L391.507 145.87L392.318 146.455ZM361.193 150.614L361.745 149.78V149.78L361.193 150.614ZM354.545 140.455L354.303 139.484L353.37 139.718L353.567 140.659L354.545 140.455ZM362.182 138.545L363.15 138.296L362.902 137.335L361.939 137.575L362.182 138.545ZM366.307 144.886L365.735 145.707L365.74 145.71L366.307 144.886ZM383.25 144.614L383.835 145.425L383.837 145.423L383.25 144.614ZM384.682 134.25L383.981 134.963L383.988 134.97L384.682 134.25ZM378.818 131.455L378.59 132.428L378.591 132.429L378.818 131.455ZM370.091 129.409L369.86 130.382L369.863 130.383L370.091 129.409ZM359.523 124.125L358.788 124.804L358.795 124.811L359.523 124.125ZM358.67 107.25L357.867 106.655L357.863 106.66L358.67 107.25ZM365.523 101.898L365.116 100.984L365.113 100.985L365.523 101.898ZM387.614 103.364L387.004 104.156L387.007 104.159L387.614 103.364ZM393.955 112.364L393.682 111.401L386.455 113.447L386.727 114.409L387 115.371L394.227 113.326L393.955 112.364ZM386.727 114.409L387.663 114.056C387.169 112.747 386.445 111.489 385.504 110.283L384.716 110.898L383.927 111.513C384.759 112.579 385.377 113.662 385.792 114.762L386.727 114.409ZM384.716 110.898L385.518 110.3C384.547 108.997 383.235 107.948 381.618 107.14L381.17 108.034L380.723 108.929C382.106 109.62 383.158 110.48 383.914 111.495L384.716 110.898ZM381.17 108.034L381.618 107.14C379.935 106.298 377.847 105.909 375.409 105.909V106.909V107.909C377.653 107.909 379.406 108.27 380.723 108.929L381.17 108.034ZM375.409 106.909V105.909C372.049 105.909 369.168 106.685 366.829 108.302L367.398 109.125L367.966 109.948C369.9 108.61 372.36 107.909 375.409 107.909V106.909ZM367.398 109.125L366.831 108.301C364.49 109.912 363.227 112.052 363.227 114.682H364.227H365.227C365.227 112.811 366.078 111.247 367.965 109.949L367.398 109.125ZM364.227 114.682H363.227C363.227 116.96 364.073 118.838 365.786 120.203L366.409 119.42L367.032 118.638C365.836 117.685 365.227 116.404 365.227 114.682H364.227ZM366.409 119.42L365.786 120.203C367.405 121.493 369.84 122.502 372.985 123.288L373.227 122.318L373.47 121.348C370.432 120.589 368.322 119.666 367.032 118.638L366.409 119.42ZM373.227 122.318L372.989 123.289L380.761 125.198L381 124.227L381.239 123.256L373.466 121.347L373.227 122.318ZM381 124.227L380.764 125.199C385.344 126.311 388.635 127.985 390.752 130.143L391.466 129.443L392.18 128.743C389.706 126.22 386.019 124.416 381.236 123.255L381 124.227ZM391.466 129.443L390.755 130.147C392.842 132.254 393.909 134.979 393.909 138.409H394.909H395.909C395.909 134.521 394.681 131.268 392.176 128.74L391.466 129.443ZM394.909 138.409H393.909C393.909 141.203 393.11 143.677 391.511 145.865L392.318 146.455L393.126 147.045C394.981 144.505 395.909 141.616 395.909 138.409H394.909ZM392.318 146.455L391.507 145.87C389.921 148.069 387.684 149.829 384.753 151.132L385.159 152.045L385.565 152.959C388.77 151.535 391.306 149.567 393.129 147.039L392.318 146.455ZM385.159 152.045L384.753 151.132C381.837 152.428 378.412 153.091 374.455 153.091V154.091V155.091C378.634 155.091 382.345 154.39 385.565 152.959L385.159 152.045ZM374.455 154.091V153.091C369.257 153.091 365.042 151.964 361.745 149.78L361.193 150.614L360.641 151.447C364.344 153.9 368.97 155.091 374.455 155.091V154.091ZM361.193 150.614L361.745 149.78C358.484 147.62 356.407 144.471 355.524 140.25L354.545 140.455L353.567 140.659C354.547 145.348 356.902 148.971 360.641 151.447L361.193 150.614ZM354.545 140.455L354.788 141.425L362.424 139.516L362.182 138.545L361.939 137.575L354.303 139.484L354.545 140.455ZM362.182 138.545L361.214 138.795C361.989 141.801 363.482 144.137 365.735 145.707L366.307 144.886L366.878 144.066C365.086 142.817 363.829 140.926 363.15 138.296L362.182 138.545ZM366.307 144.886L365.74 145.71C367.998 147.266 370.885 148 374.318 148V147V146C371.16 146 368.706 145.325 366.874 144.063L366.307 144.886ZM374.318 147V148C378.2 148 381.406 147.177 383.835 145.425L383.25 144.614L382.665 143.803C380.684 145.232 377.936 146 374.318 146V147ZM383.25 144.614L383.837 145.423C386.259 143.669 387.591 141.461 387.591 138.818H386.591H385.591C385.591 140.675 384.696 142.331 382.663 143.804L383.25 144.614ZM386.591 138.818H387.591C387.591 136.737 386.85 134.952 385.376 133.53L384.682 134.25L383.988 134.97C385.059 136.003 385.591 137.263 385.591 138.818H386.591ZM384.682 134.25L385.383 133.537C383.928 132.108 381.774 131.116 379.045 130.481L378.818 131.455L378.591 132.429C381.135 133.02 382.891 133.892 383.981 134.963L384.682 134.25ZM378.818 131.455L379.046 130.481L370.319 128.435L370.091 129.409L369.863 130.383L378.59 132.428L378.818 131.455ZM370.091 129.409L370.321 128.436C365.627 127.324 362.315 125.628 360.25 123.439L359.523 124.125L358.795 124.811C361.231 127.394 364.964 129.222 369.86 130.382L370.091 129.409ZM359.523 124.125L360.257 123.446C358.218 121.241 357.182 118.481 357.182 115.091H356.182H355.182C355.182 118.929 356.372 122.191 358.788 124.804L359.523 124.125ZM356.182 115.091H357.182C357.182 112.337 357.951 109.932 359.478 107.84L358.67 107.25L357.863 106.66C356.072 109.113 355.182 111.936 355.182 115.091H356.182ZM358.67 107.25L359.474 107.845C361.042 105.726 363.183 104.044 365.932 102.81L365.523 101.898L365.113 100.985C362.089 102.343 359.662 104.229 357.867 106.655L358.67 107.25ZM365.523 101.898L365.93 102.811C368.692 101.581 371.846 100.955 375.409 100.955V99.9545V98.9545C371.609 98.9545 368.172 99.6235 365.116 100.984L365.523 101.898ZM375.409 99.9545V100.955C380.455 100.955 384.281 102.062 387.004 104.156L387.614 103.364L388.223 102.571C385.037 100.12 380.727 98.9545 375.409 98.9545V99.9545ZM387.614 103.364L387.007 104.159C389.817 106.304 391.817 109.134 393.006 112.682L393.955 112.364L394.903 112.046C393.592 108.139 391.365 104.969 388.22 102.569L387.614 103.364ZM415.918 150.75L415.391 151.6L415.398 151.604L415.918 150.75ZM407.497 141.341L406.597 141.776L406.6 141.782L407.497 141.341ZM407.497 113.045L406.596 112.612L406.595 112.614L407.497 113.045ZM415.747 103.432L416.293 104.27L416.294 104.269L415.747 103.432ZM436.236 101.318L436.559 100.372V100.372L436.236 101.318ZM443.497 105.75L442.813 106.48L442.817 106.483L443.497 105.75ZM448.713 113.795L449.645 113.434V113.434L448.713 113.795ZM450.656 129.545V130.545H451.656V129.545H450.656ZM410.293 129.545H409.293V130.545H410.293V129.545ZM410.293 122.591V121.591H409.293V122.591H410.293ZM442.474 122.591V123.591H443.474V122.591H442.474ZM440.702 114.682L439.807 115.129L439.811 115.136L440.702 114.682ZM435.724 109.193L435.193 110.04L435.197 110.043L435.724 109.193ZM419.838 109.568L420.398 110.396L420.4 110.395L419.838 109.568ZM414.486 115.705L413.59 115.261V115.261L414.486 115.705ZM414.656 138.511L413.76 138.956L413.765 138.965L414.656 138.511ZM420.418 144.75L419.914 145.614L419.92 145.617L420.418 144.75ZM434.702 145.977L435.029 146.922L435.036 146.92L434.702 145.977ZM439.168 143.25L439.862 143.97L439.868 143.964L439.168 143.25ZM442.065 138.682L442.336 137.719L441.451 137.471L441.129 138.331L442.065 138.682ZM449.838 140.864L450.793 141.16L451.098 140.179L450.108 139.901L449.838 140.864ZM445.713 147.818L446.428 148.517L446.432 148.513L445.713 147.818ZM438.554 152.455L438.912 153.388L438.919 153.386L438.554 152.455ZM428.974 154.091V153.091C424.079 153.091 419.914 152.012 416.438 149.896L415.918 150.75L415.398 151.604C419.239 153.943 423.779 155.091 428.974 155.091V154.091ZM415.918 150.75L416.444 149.9C412.975 147.753 410.293 144.762 408.395 140.9L407.497 141.341L406.6 141.782C408.656 145.965 411.587 149.247 415.391 151.6L415.918 150.75ZM407.497 141.341L408.398 140.906C406.52 137.02 405.565 132.469 405.565 127.227H404.565H403.565C403.565 132.713 404.565 137.571 406.597 141.776L407.497 141.341ZM404.565 127.227H405.565C405.565 121.986 406.52 117.41 408.399 113.477L407.497 113.045L406.595 112.614C404.565 116.862 403.565 121.742 403.565 127.227H404.565ZM407.497 113.045L408.398 113.479C410.304 109.515 412.937 106.457 416.293 104.27L415.747 103.432L415.201 102.594C411.512 104.998 408.645 108.348 406.596 112.612L407.497 113.045ZM415.747 103.432L416.294 104.269C419.659 102.069 423.6 100.955 428.156 100.955V99.9545V98.9545C423.258 98.9545 418.927 100.158 415.2 102.595L415.747 103.432ZM428.156 99.9545V100.955C430.77 100.955 433.354 101.39 435.912 102.264L436.236 101.318L436.559 100.372C433.799 99.4284 430.997 98.9545 428.156 98.9545V99.9545ZM436.236 101.318L435.912 102.264C438.429 103.125 440.728 104.525 442.813 106.48L443.497 105.75L444.181 105.02C441.903 102.884 439.361 101.33 436.559 100.372L436.236 101.318ZM443.497 105.75L442.817 106.483C444.867 108.384 446.529 110.929 447.781 114.157L448.713 113.795L449.645 113.434C448.306 109.98 446.491 107.162 444.177 105.017L443.497 105.75ZM448.713 113.795L447.781 114.157C449.018 117.349 449.656 121.332 449.656 126.136H450.656H451.656C451.656 121.168 450.999 116.924 449.645 113.434L448.713 113.795ZM450.656 126.136H449.656V129.545H450.656H451.656V126.136H450.656ZM450.656 129.545V128.545H410.293V129.545V130.545H450.656V129.545ZM410.293 129.545H411.293V122.591H410.293H409.293V129.545H410.293ZM410.293 122.591V123.591H442.474V122.591V121.591H410.293V122.591ZM442.474 122.591H443.474C443.474 119.5 442.855 116.704 441.593 114.228L440.702 114.682L439.811 115.136C440.912 117.296 441.474 119.773 441.474 122.591H442.474ZM440.702 114.682L441.596 114.235C440.356 111.754 438.571 109.784 436.252 108.344L435.724 109.193L435.197 110.043C437.196 111.284 438.729 112.973 439.807 115.129L440.702 114.682ZM435.724 109.193L436.256 108.346C433.937 106.891 431.224 106.182 428.156 106.182V107.182V108.182C430.907 108.182 433.239 108.814 435.193 110.04L435.724 109.193ZM428.156 107.182V106.182C424.779 106.182 421.804 107.023 419.276 108.741L419.838 109.568L420.4 110.395C422.554 108.932 425.125 108.182 428.156 108.182V107.182ZM419.838 109.568L419.278 108.74C416.815 110.406 414.916 112.584 413.59 115.261L414.486 115.705L415.382 116.149C416.556 113.78 418.224 111.867 420.398 110.396L419.838 109.568ZM414.486 115.705L413.59 115.261C412.27 117.925 411.611 120.782 411.611 123.818H412.611H413.611C413.611 121.082 414.202 118.53 415.382 116.149L414.486 115.705ZM412.611 123.818H411.611V128.455H412.611H413.611V123.818H412.611ZM412.611 128.455H411.611C411.611 132.52 412.311 136.034 413.76 138.956L414.656 138.511L415.552 138.067C414.274 135.489 413.611 132.298 413.611 128.455H412.611ZM414.656 138.511L413.765 138.965C415.231 141.849 417.28 144.078 419.914 145.614L420.418 144.75L420.921 143.886C418.646 142.559 416.854 140.628 415.548 138.058L414.656 138.511ZM420.418 144.75L419.92 145.617C422.547 147.126 425.576 147.864 428.974 147.864V146.864V145.864C425.873 145.864 423.197 145.193 420.915 143.883L420.418 144.75ZM428.974 146.864V147.864C431.181 147.864 433.203 147.555 435.029 146.922L434.702 145.977L434.374 145.032C432.791 145.581 430.995 145.864 428.974 145.864V146.864ZM434.702 145.977L435.036 146.92C436.89 146.261 438.503 145.279 439.862 143.97L439.168 143.25L438.474 142.53C437.332 143.63 435.968 144.466 434.367 145.035L434.702 145.977ZM439.168 143.25L439.868 143.964C441.233 142.623 442.274 140.973 443.002 139.033L442.065 138.682L441.129 138.331C440.493 140.027 439.602 141.422 438.467 142.536L439.168 143.25ZM442.065 138.682L441.795 139.645L449.568 141.826L449.838 140.864L450.108 139.901L442.336 137.719L442.065 138.682ZM449.838 140.864L448.883 140.567C448.112 143.053 446.818 145.235 444.994 147.123L445.713 147.818L446.432 148.513C448.472 146.401 449.928 143.947 450.793 141.16L449.838 140.864ZM445.713 147.818L444.998 147.119C443.175 148.985 440.912 150.456 438.189 151.524L438.554 152.455L438.919 153.386C441.878 152.226 444.388 150.606 446.428 148.517L445.713 147.818ZM438.554 152.455L438.195 151.521C435.486 152.561 432.417 153.091 428.974 153.091V154.091V155.091C432.623 155.091 435.94 154.53 438.912 153.388L438.554 152.455ZM473.634 153V154H474.36L474.584 153.309L473.634 153ZM457.815 153L456.87 152.674L456.412 154H457.815V153ZM481.918 83.1818V82.1818H481.205L480.972 82.8555L481.918 83.1818ZM500.94 83.1818L501.886 82.8559L501.653 82.1818H500.94V83.1818ZM525.009 153V154H526.411L525.954 152.674L525.009 153ZM509.19 153L508.239 153.309L508.464 154H509.19V153ZM491.702 99.1364L492.653 98.8275L492.428 98.1364H491.702V99.1364ZM491.156 99.1364V98.1364H490.43L490.205 98.827L491.156 99.1364ZM472.645 125.557V124.557H471.645V125.557H472.645ZM510.009 125.557H511.009V124.557H510.009V125.557ZM510.009 137.08V138.08H511.009V137.08H510.009ZM472.645 137.08H471.645V138.08H472.645V137.08ZM473.634 153V152H457.815V153V154H473.634V153ZM457.815 153L458.761 153.326L482.863 83.5081L481.918 83.1818L480.972 82.8555L456.87 152.674L457.815 153ZM481.918 83.1818V84.1818H500.94V83.1818V82.1818H481.918V83.1818ZM500.94 83.1818L499.995 83.5077L524.063 153.326L525.009 153L525.954 152.674L501.886 82.8559L500.94 83.1818ZM525.009 153V152H509.19V153V154H525.009V153ZM509.19 153L510.141 152.691L492.653 98.8275L491.702 99.1364L490.751 99.4452L508.239 153.309L509.19 153ZM491.702 99.1364V98.1364H491.156V99.1364V100.136H491.702V99.1364ZM491.156 99.1364L490.205 98.827L472.683 152.691L473.634 153L474.584 153.309L492.107 99.4457L491.156 99.1364ZM472.645 125.557V126.557H510.009V125.557V124.557H472.645V125.557ZM510.009 125.557H509.009V137.08H510.009H511.009V125.557H510.009ZM510.009 137.08V136.08H472.645V137.08V138.08H510.009V137.08ZM472.645 137.08H473.645V125.557H472.645H471.645V137.08H472.645ZM548.173 83.1818H549.173V82.1818H548.173V83.1818ZM548.173 153V154H549.173V153H548.173ZM533.412 153H532.412V154H533.412V153ZM533.412 83.1818V82.1818H532.412V83.1818H533.412ZM548.173 83.1818H547.173V153H548.173H549.173V83.1818H548.173ZM548.173 153V152H533.412V153V154H548.173V153ZM533.412 153H534.412V83.1818H533.412H532.412V153H533.412ZM533.412 83.1818V84.1818H548.173V83.1818V82.1818H533.412V83.1818Z" fill="white" mask="url(#path-3-outside-1_51_3)"/>
</svg>
