<svg width="345" height="275" viewBox="0 0 345 275" fill="none" xmlns="http://www.w3.org/2000/svg">
<rect x="132.14" y="50.5323" width="128" height="66" rx="33" transform="rotate(45.4933 132.14 50.5323)" stroke="#E013CC" stroke-width="10"/>
<rect x="266.083" y="98.3564" width="128" height="66" rx="33" transform="rotate(135.493 266.083 98.3564)" stroke="#E013CC" stroke-width="10"/>
<path d="M8.45455 252V182.182H32.0455C37.5227 182.182 42 183.17 45.4773 185.148C48.9773 187.102 51.5682 189.75 53.25 193.091C54.9318 196.432 55.7727 200.159 55.7727 204.273C55.7727 208.386 54.9318 212.125 53.25 215.489C51.5909 218.852 49.0227 221.534 45.5455 223.534C42.0682 225.511 37.6136 226.5 32.1818 226.5H15.2727V219H31.9091C35.6591 219 38.6705 218.352 40.9432 217.057C43.2159 215.761 44.8636 214.011 45.8864 211.807C46.9318 209.58 47.4545 207.068 47.4545 204.273C47.4545 201.477 46.9318 198.977 45.8864 196.773C44.8636 194.568 43.2045 192.841 40.9091 191.591C38.6136 190.318 35.5682 189.682 31.7727 189.682H16.9091V252H8.45455ZM101.301 230.591V199.636H109.347V252H101.301V243.136H100.756C99.5284 245.795 97.6193 248.057 95.0284 249.92C92.4375 251.761 89.1648 252.682 85.2102 252.682C81.9375 252.682 79.0284 251.966 76.483 250.534C73.9375 249.08 71.9375 246.898 70.483 243.989C69.0284 241.057 68.3011 237.364 68.3011 232.909V199.636H76.3466V232.364C76.3466 236.182 77.4148 239.227 79.5511 241.5C81.7102 243.773 84.4602 244.909 87.8011 244.909C89.8011 244.909 91.8352 244.398 93.9034 243.375C95.9943 242.352 97.7443 240.784 99.1534 238.67C100.585 236.557 101.301 233.864 101.301 230.591ZM132.128 182.182V252H124.082V182.182H132.128ZM183.955 211.364L176.727 213.409C176.273 212.205 175.602 211.034 174.716 209.898C173.852 208.739 172.67 207.784 171.17 207.034C169.67 206.284 167.75 205.909 165.409 205.909C162.205 205.909 159.534 206.648 157.398 208.125C155.284 209.58 154.227 211.432 154.227 213.682C154.227 215.682 154.955 217.261 156.409 218.42C157.864 219.58 160.136 220.545 163.227 221.318L171 223.227C175.682 224.364 179.17 226.102 181.466 228.443C183.761 230.761 184.909 233.75 184.909 237.409C184.909 240.409 184.045 243.091 182.318 245.455C180.614 247.818 178.227 249.682 175.159 251.045C172.091 252.409 168.523 253.091 164.455 253.091C159.114 253.091 154.693 251.932 151.193 249.614C147.693 247.295 145.477 243.909 144.545 239.455L152.182 237.545C152.909 240.364 154.284 242.477 156.307 243.886C158.352 245.295 161.023 246 164.318 246C168.068 246 171.045 245.205 173.25 243.614C175.477 242 176.591 240.068 176.591 237.818C176.591 236 175.955 234.477 174.682 233.25C173.409 232 171.455 231.068 168.818 230.455L160.091 228.409C155.295 227.273 151.773 225.511 149.523 223.125C147.295 220.716 146.182 217.705 146.182 214.091C146.182 211.136 147.011 208.523 148.67 206.25C150.352 203.977 152.636 202.193 155.523 200.898C158.432 199.602 161.727 198.955 165.409 198.955C170.591 198.955 174.659 200.091 177.614 202.364C180.591 204.636 182.705 207.636 183.955 211.364ZM218.974 253.091C213.929 253.091 209.577 251.977 205.918 249.75C202.281 247.5 199.474 244.364 197.497 240.341C195.543 236.295 194.565 231.591 194.565 226.227C194.565 220.864 195.543 216.136 197.497 212.045C199.474 207.932 202.224 204.727 205.747 202.432C209.293 200.114 213.429 198.955 218.156 198.955C220.884 198.955 223.577 199.409 226.236 200.318C228.895 201.227 231.315 202.705 233.497 204.75C235.679 206.773 237.418 209.455 238.713 212.795C240.009 216.136 240.656 220.25 240.656 225.136V228.545H200.293V221.591H232.474C232.474 218.636 231.884 216 230.702 213.682C229.543 211.364 227.884 209.534 225.724 208.193C223.588 206.852 221.065 206.182 218.156 206.182C214.952 206.182 212.179 206.977 209.838 208.568C207.52 210.136 205.736 212.182 204.486 214.705C203.236 217.227 202.611 219.932 202.611 222.818V227.455C202.611 231.409 203.293 234.761 204.656 237.511C206.043 240.239 207.963 242.318 210.418 243.75C212.872 245.159 215.724 245.864 218.974 245.864C221.088 245.864 222.997 245.568 224.702 244.977C226.429 244.364 227.918 243.455 229.168 242.25C230.418 241.023 231.384 239.5 232.065 237.682L239.838 239.864C239.02 242.5 237.645 244.818 235.713 246.818C233.781 248.795 231.395 250.341 228.554 251.455C225.713 252.545 222.52 253.091 218.974 253.091ZM263.634 252H247.815L271.918 182.182H290.94L315.009 252H299.19L281.702 198.136H281.156L263.634 252ZM262.645 224.557H300.009V236.08H262.645V224.557ZM338.173 182.182V252H323.412V182.182H338.173Z" fill="#E013CC"/>
</svg>
