<svg width="490" height="430" viewBox="0 0 490 430" fill="none" xmlns="http://www.w3.org/2000/svg">
<rect x="50" width="100" height="100" rx="10" fill="#E013CC"/>
<rect x="204" y="76" width="100" height="100" rx="10" fill="#EE59DF"/>
<rect x="63" y="165" width="100" height="100" rx="10" fill="#E013CC"/>
<rect x="321" y="172" width="100" height="100" rx="10" fill="#E013CC"/>
<rect x="371" y="26" width="100" height="100" rx="10" fill="#EE59DF"/>
<rect y="330" width="100" height="100" rx="10" fill="#EE59DF"/>
<rect x="180" y="313" width="100" height="100" rx="10" fill="#E013CC"/>
<rect x="390" y="313" width="100" height="100" rx="10" fill="#EE59DF"/>
<rect x="163.507" y="98.4114" width="337.898" height="117" rx="17.5" transform="rotate(29.7715 163.507 98.4114)" fill="#E013CC" fill-opacity="0.76"/>
<rect x="163.507" y="98.4114" width="337.898" height="117" rx="17.5" transform="rotate(29.7715 163.507 98.4114)" stroke="white" stroke-width="5"/>
<path d="M201.254 206.985L218.588 176.683L228.827 182.54C231.204 183.9 232.902 185.441 233.92 187.162C234.954 188.879 235.421 190.672 235.321 192.539C235.222 194.407 234.661 196.233 233.64 198.019C232.619 199.804 231.325 201.218 229.76 202.26C228.205 203.308 226.425 203.834 224.419 203.839C222.419 203.834 220.24 203.157 217.883 201.808L210.544 197.61L212.406 194.355L219.627 198.486C221.254 199.417 222.722 199.883 224.03 199.885C225.338 199.887 226.487 199.537 227.479 198.834C228.485 198.127 229.336 197.167 230.03 195.953C230.724 194.74 231.118 193.525 231.211 192.309C231.315 191.098 231.023 189.937 230.337 188.824C229.657 187.702 228.493 186.67 226.846 185.727L220.395 182.037L204.924 209.084L201.254 206.985ZM246.865 220.744L254.551 207.31L258.042 209.307L245.042 232.033L241.55 230.036L243.751 226.189L243.514 226.054C242.321 226.903 240.931 227.41 239.344 227.576C237.763 227.732 236.114 227.319 234.397 226.337C232.977 225.524 231.892 224.491 231.143 223.238C230.399 221.975 230.073 220.531 230.164 218.908C230.261 217.274 230.862 215.491 231.968 213.557L240.228 199.117L243.72 201.114L235.595 215.318C234.647 216.975 234.354 218.562 234.717 220.079C235.09 221.601 236.002 222.777 237.452 223.607C238.32 224.103 239.329 224.386 240.481 224.456C241.642 224.531 242.791 224.285 243.927 223.718C245.074 223.156 246.053 222.165 246.865 220.744ZM272.263 207.388L254.929 237.689L251.437 235.692L268.771 205.39L272.263 207.388ZM287.511 232.92L283.867 232.013C283.968 231.378 283.968 230.703 283.865 229.99C283.778 229.272 283.502 228.565 283.038 227.867C282.573 227.169 281.832 226.529 280.816 225.948C279.426 225.153 278.083 224.81 276.789 224.921C275.511 225.028 274.592 225.569 274.034 226.546C273.537 227.414 273.461 228.28 273.804 229.144C274.148 230.008 274.894 230.991 276.044 232.094L278.943 234.853C280.693 236.508 281.776 238.129 282.191 239.715C282.611 241.291 282.368 242.873 281.459 244.461C280.714 245.763 279.674 246.712 278.337 247.309C277.011 247.912 275.512 248.128 273.842 247.958C272.172 247.788 270.454 247.198 268.688 246.188C266.37 244.862 264.74 243.262 263.796 241.387C262.853 239.512 262.732 237.492 263.433 235.327L267.221 236.395C266.837 237.798 266.909 239.057 267.437 240.171C267.975 241.29 268.959 242.259 270.39 243.077C272.017 244.008 273.507 244.402 274.859 244.259C276.226 244.112 277.189 243.55 277.747 242.573C278.199 241.784 278.301 240.965 278.053 240.117C277.811 239.258 277.194 238.368 276.202 237.448L272.922 234.393C271.123 232.709 270.032 231.07 269.647 229.476C269.279 227.877 269.543 226.294 270.44 224.726C271.174 223.443 272.183 222.515 273.467 221.94C274.761 221.372 276.196 221.164 277.77 221.319C279.354 221.479 280.945 222.016 282.543 222.93C284.792 224.216 286.276 225.72 286.994 227.44C287.721 229.165 287.894 230.992 287.511 232.92ZM292.35 259.724C290.161 258.472 288.548 256.908 287.513 255.033C286.493 253.153 286.054 251.095 286.195 248.858C286.351 246.617 287.094 244.333 288.426 242.005C289.758 239.677 291.355 237.868 293.219 236.578C295.099 235.284 297.088 234.576 299.187 234.454C301.301 234.328 303.384 234.852 305.436 236.026C306.619 236.703 307.675 237.569 308.604 238.623C309.532 239.678 310.216 240.92 310.655 242.349C311.1 243.769 311.188 245.365 310.921 247.136C310.654 248.908 309.914 250.854 308.701 252.975L307.854 254.454L290.336 244.433L292.063 241.415L306.03 249.405C306.763 248.122 307.162 246.831 307.224 245.532C307.297 244.238 307.031 243.032 306.427 241.914C305.832 240.802 304.904 239.884 303.641 239.162C302.251 238.367 300.85 238.023 299.439 238.133C298.043 238.238 296.761 238.683 295.592 239.467C294.424 240.252 293.481 241.27 292.764 242.523L291.613 244.535C290.631 246.252 290.095 247.876 290.004 249.408C289.929 250.936 290.246 252.315 290.956 253.546C291.671 254.767 292.734 255.781 294.145 256.588C295.062 257.112 295.964 257.458 296.85 257.625C297.752 257.787 298.624 257.762 299.466 257.55C300.313 257.328 301.11 256.906 301.857 256.287L304.689 259.163C303.68 260.104 302.507 260.769 301.172 261.157C299.843 261.536 298.424 261.614 296.914 261.392C295.41 261.16 293.889 260.604 292.35 259.724ZM312.003 270.338L305.138 266.411L332.933 242.093L341.189 246.816L334.301 283.093L327.435 279.166L333.218 251.447L332.981 251.311L312.003 270.338ZM318.388 258.182L334.604 267.459L331.743 272.46L315.527 263.183L318.388 258.182ZM361.688 258.543L344.354 288.844L337.948 285.18L355.282 254.878L361.688 258.543Z" fill="white"/>
</svg>
